<svg width="622.605" height="92" viewBox="0 0 622.605 92" fill="none" xmlns="http://www.w3.org/2000/svg">
  <g clip-path="url(#a)">
    <path d="M0 1.269v88.749h66.562V76.833H13.693V1.269H0Zm153.282 88.748H99.651V76.833h19.906V14.454H99.651V1.269h53.631v13.185h-20.033v62.379h20.033v13.184ZM261.808 1.269v9.889l-57.814 65.544h59.209v13.315h-80.256V80.003l57.941-65.422h-54.641V1.269h75.561Zm45.008 0v38.289h55.53V1.269h13.694v88.748h-13.694V52.74h-55.53v37.277h-13.693V1.269h13.693Zm121.458 88.748h-13.693V1.269h13.693v46.403l20.54-17.116 34.485-29.287h19.397l-43.112 36.006 42.219 52.74h-17.745l-34.862-43.991-20.922 17.496v26.497Zm194.233-44.374a43.452 43.452 0 0 1-14.073 32.456 48.627 48.627 0 0 1-15.849 9.699 59.822 59.822 0 0 1-40.254 0 47.699 47.699 0 0 1-15.848-9.699 43.691 43.691 0 0 1-14.014-32.456 43.684 43.684 0 0 1 3.579-17.709 43.667 43.667 0 0 1 10.435-14.748 47.775 47.775 0 0 1 15.848-9.699 59.822 59.822 0 0 1 40.254 0 48.717 48.717 0 0 1 15.849 9.699 43.45 43.45 0 0 1 14.073 32.457Zm-13.947 0a30.213 30.213 0 0 0-4.628-16.545 32.619 32.619 0 0 0-12.805-11.537 43.429 43.429 0 0 0-37.464 0 32.243 32.243 0 0 0-12.681 11.537 30.524 30.524 0 0 0-4.565 16.546 30.52 30.52 0 0 0 4.565 16.544 32.216 32.216 0 0 0 12.679 11.537 43.416 43.416 0 0 0 37.464 0 32.437 32.437 0 0 0 12.805-11.6 30.299 30.299 0 0 0 4.628-16.482" fill="#1A1818"/>
  </g>
  <defs>
    <clipPath id="a">
      <path fill="#fff" d="M0 0h622.507v91.285H0V0z"/>
    </clipPath>
  </defs>
</svg>
