<svg width="582" height="86" fill="none" xmlns="http://www.w3.org/2000/svg"><g clip-path="url(#a)"><path d="M0 1.186v82.961h62.221V71.822H12.8V1.186H0ZM143.285 84.146H93.152V71.822h18.608V13.511H93.152V1.186h50.133v12.325h-18.726v58.311h18.726v12.324ZM244.733 1.186v9.244L190.69 71.7h55.347v12.446h-75.021v-9.361l54.162-61.155H174.1V1.186h70.633ZM286.806 1.186v35.792h51.909V1.186h12.8v82.96h-12.8V49.3h-51.909v34.846h-12.8V1.186h12.8ZM400.343 84.146h-12.8V1.186h12.8v43.377l19.2-16 32.236-27.377h18.132l-40.3 33.658 39.465 49.3h-16.587L419.9 43.022l-19.557 16.355v24.769ZM581.908 42.666a40.62 40.62 0 0 1-13.155 30.34 45.455 45.455 0 0 1-14.815 9.066 55.922 55.922 0 0 1-37.629 0 44.6 44.6 0 0 1-14.814-9.066 40.837 40.837 0 0 1-13.1-30.34 40.837 40.837 0 0 1 13.1-30.34 44.66 44.66 0 0 1 14.814-9.066 55.922 55.922 0 0 1 37.629 0 45.527 45.527 0 0 1 14.815 9.066 40.62 40.62 0 0 1 13.155 30.34Zm-13.037 0a28.245 28.245 0 0 0-4.326-15.466 30.487 30.487 0 0 0-11.97-10.784 40.59 40.59 0 0 0-35.021 0A30.145 30.145 0 0 0 505.7 27.2a28.541 28.541 0 0 0-4.267 15.467 28.534 28.534 0 0 0 4.267 15.465c2.905 4.6 7 8.326 11.852 10.785a40.59 40.59 0 0 0 35.021 0 30.321 30.321 0 0 0 11.97-10.844 28.324 28.324 0 0 0 4.326-15.407" fill="#1A1818"/></g><defs><clipPath id="a"><path fill="#fff" d="M0 0h581.908v85.332H0z"/></clipPath></defs></svg>